<svg xmlns="http://www.w3.org/2000/svg" viewBox="0 0 100 100">
  <path d="M68.7,24l-0.2-0.3c-1.9-2.7-4.6-4.4-7.6-4.9l-0.8-0.1v-5.5c0-0.3-0.2-0.6-0.5-0.6l-18.2-0.1c-0.3,0-0.5,0.2-0.6,0.5
		v5.6l-0.9,0.1c-3.2,0.6-5.9,2.5-7.7,5.4L32,24.1c-3.1,4.7-2.9,11.2-2.6,17.2l0.1,1.8h7.5v1.4h-7.4l0.8,11.8
		c0.5,5.1,0.9,10.3,2.6,14.9c2.6,6.8,8.5,10.2,17.7,10.2h0.1c9.3,0,15.2-3.4,17.7-10.2c1.7-4.7,2.1-9.9,2.6-15.1l0.8-11.6h-7.4v-1.4
		h7.5l0.1-1.8C71.6,35.1,71.7,28.6,68.7,24z M42.3,14.2l15.6,0.1v3.9H42.3V14.2z M34.6,25.2c1.4-2.2,3.5-3.6,6-4.1l1.5-0.3h15.9
		l1.5,0.3c2.4,0.4,4.5,1.7,5.9,3.9l0.2,0.2c2.1,3.2,2.4,8.4,2.1,13.4H32.5C32.1,33.6,32.5,28.4,34.6,25.2z M66.5,55
		c-0.5,5-0.9,10-2.5,14.4c-2,5.3-6.8,8-14.2,8h-0.1c-7.4,0-12.3-2.7-14.2-8c-1.6-4.3-2-9.3-2.5-14.2l-0.6-8.8h34.6L66.5,55z"/>
</svg> 