<svg xmlns="http://www.w3.org/2000/svg" viewBox="0 0 100 100">
  <path d="M94.3,40c-0.3,0-0.6-0.2-0.8-0.4c-0.2-0.4-0.1-0.9,0.3-1.1c1.1-0.6,1.8-1.8,1.8-3c0-1.9-1.6-3.5-3.5-3.5
    c-1.1,0-2.2,0.6-2.9,1.5c-0.3,0.4-0.8,0.5-1.2,0.2c-0.4-0.3-0.5-0.8-0.2-1.2c1-1.4,2.6-2.2,4.3-2.2c2.8,0,5.1,2.3,5.1,5.1
    c0,1.8-1,3.5-2.6,4.4C94.6,40,94.4,40,94.3,40z"/>
  <path d="M12.5,40c-0.1,0-0.3,0-0.4-0.1c-1.6-0.9-2.6-2.6-2.6-4.4c0-2.8,2.3-5.1,5.1-5.1c1.7,0,3.3,0.8,4.3,2.2
    c0.3,0.4,0.2,0.9-0.2,1.2c-0.4,0.3-0.9,0.2-1.2-0.2c-0.7-1-1.7-1.5-2.9-1.5c-1.9,0-3.5,1.6-3.5,3.5c0,1.2,0.7,2.4,1.8,3
    c0.4,0.2,0.5,0.7,0.3,1.1C13.1,39.8,12.8,40,12.5,40z"/>
  <path d="M91.8,38.3c-0.5,0-0.8-0.4-0.8-0.8c0-18.2-14.8-33-33-33c-18.2,0-33,14.8-33,33c0,0.5-0.4,0.8-0.8,0.8s-0.8-0.4-0.8-0.8
    c0-19.1,15.5-34.6,34.6-34.6c19.1,0,34.6,15.5,34.6,34.6C92.6,37.9,92.3,38.3,91.8,38.3z"/>
  <path d="M92.3,76.3H8.5c-0.5,0-0.8-0.4-0.8-0.8c0-0.5,0.4-0.8,0.8-0.8h83.8c0.5,0,0.8,0.4,0.8,0.8C93.1,75.9,92.7,76.3,92.3,76.3z"/>
  <path d="M92.3,76.3c-0.2,0-0.4-0.1-0.6-0.2L8.5,50.6c-0.4-0.2-0.6-0.7-0.4-1.1c0.2-0.4,0.7-0.6,1.1-0.4l83.1,25.4
    c0.4,0.1,0.6,0.6,0.5,1C92.9,76,92.6,76.3,92.3,76.3z"/>
  <path d="M8.5,76.3c-0.3,0-0.6-0.2-0.7-0.5c-0.1-0.4,0.1-0.9,0.5-1L91.4,49c0.4-0.1,0.9,0.1,1.1,0.4c0.2,0.4,0,0.9-0.4,1.1
    L9,76.1C8.8,76.2,8.7,76.3,8.5,76.3z"/>
</svg> 