<svg xmlns="http://www.w3.org/2000/svg" viewBox="0 0 100 100">
  <path d="M74,30.7H26c-0.6,0-1-0.4-1-1v-6.4c0-0.6,0.4-1,1-1h48c0.6,0,1,0.4,1,1v6.4C75,30.3,74.6,30.7,74,30.7z M27,28.7h46
		v-4.4H27V28.7z"/>
  <path d="M84,77.3H16c-0.6,0-1-0.4-1-1V34.9c0-0.6,0.4-1,1-1h68c0.6,0,1,0.4,1,1v41.4C85,76.9,84.6,77.3,84,77.3z M17,75.3h66
		V35.9H17V75.3z"/>
  <path d="M84,77.3c-0.6,0-1-0.4-1-1V35.9c0-0.6,0.4-1,1-1s1,0.4,1,1v40.4C85,76.9,84.6,77.3,84,77.3z"/>
  <path d="M16,77.3c-0.6,0-1-0.4-1-1V35.9c0-0.6,0.4-1,1-1s1,0.4,1,1v40.4C17,76.9,16.6,77.3,16,77.3z"/>
  <path d="M74,30.7c-0.6,0-1-0.4-1-1v-6.4c0-0.6,0.4-1,1-1s1,0.4,1,1v6.4C75,30.3,74.6,30.7,74,30.7z"/>
  <path d="M26,30.7c-0.6,0-1-0.4-1-1v-6.4c0-0.6,0.4-1,1-1s1,0.4,1,1v6.4C27,30.3,26.6,30.7,26,30.7z"/>
</svg> 