<svg xmlns="http://www.w3.org/2000/svg" viewBox="0 0 100 100">
  <path d="M95.3,90.5H4.7c-0.5,0-1-0.4-1-1c0-0.4,0.2-0.7,0.5-0.9l45-28.4c0.3-0.2,0.7-0.2,1,0l45,28.4c0.4,0.3,0.6,0.8,0.3,1.3
    C96,90.3,95.7,90.5,95.3,90.5z M8.8,88.5h82.4L50,63.5L8.8,88.5z"/>
  <path d="M50,63.5c-0.5,0-1-0.4-1-1v-52c0-0.6,0.4-1,1-1s1,0.4,1,1v52C51,63.1,50.6,63.5,50,63.5z"/>
  <path d="M80,29.5c-0.1,0-0.3,0-0.4-0.1C79.2,29.3,65,23.7,50,23.7S20.8,29.3,20.4,29.4c-0.5,0.2-1.1-0.1-1.3-0.6
    c-0.2-0.5,0.1-1.1,0.6-1.3c0.1,0,14.7-5.9,30.3-5.9s30.2,5.8,30.3,5.9c0.5,0.2,0.8,0.8,0.6,1.3C80.8,29.2,80.4,29.5,80,29.5z"/>
</svg> 